<svg width="55" height="36" viewBox="0 0 55 36" fill="none" xmlns="http://www.w3.org/2000/svg">
<g clip-path="url(#clip0_5_32)">
<path d="M53.8643 6.82187C53.5587 5.84588 52.9458 4.95461 52.0882 4.23914C51.2306 3.52366 50.1592 3.00961 48.9833 2.74953C41.8543 2.05293 34.6782 1.73902 27.5 1.80976C20.322 1.73902 13.1459 2.05293 6.01673 2.74953C4.84089 3.00961 3.76943 3.52366 2.91189 4.23914C2.05431 4.95461 1.4414 5.84588 1.13572 6.82187C0.354794 10.4498 -0.0248925 14.1292 0.0014031 17.8142C-0.0261986 21.5183 0.353488 25.2167 1.13572 28.8636C1.45725 29.8238 2.0772 30.6972 2.93372 31.3969C3.7902 32.0966 4.85326 32.5978 6.01673 32.8504C13.1459 33.547 20.322 33.8611 27.5 33.7902C34.6782 33.8611 41.8543 33.547 48.9833 32.8504C50.1468 32.5978 51.21 32.0966 52.0662 31.3969C52.9228 30.6972 53.5429 29.8238 53.8643 28.8636C54.6466 25.2167 55.0261 21.5183 54.9986 17.8142C55.0251 14.1292 54.6453 10.4498 53.8643 6.82187ZM21.8628 24.6204V11.065L36.2652 17.8142L21.8628 24.5919V24.6204Z" fill="black" stroke="black" stroke-width="2.66667"/>
</g>
<defs>
<clipPath id="clip0_5_32">
<rect width="55" height="36" fill="white"/>
</clipPath>
</defs>
</svg>
