<svg xmlns="http://www.w3.org/2000/svg" width="266" height="58" viewBox="0 0 266 58"><rect width="100%" height="100%" fill="#202020"/><path fill="#ffffff" d="M72.255 31.74h6.67l-2.55-6.97q-.19-.47-.39-1.1-.2-.64-.41-1.38-.18.74-.39 1.38-.2.65-.39 1.13l-2.54 6.94Zm5.33-13.05 8.23 20.97h-3.01q-.51 0-.83-.25-.32-.26-.48-.63l-1.57-4.28h-8.68l-1.57 4.28q-.11.33-.45.6-.33.28-.82.28h-3.05l8.25-20.97h3.98Zm13 6.99.22 1.68q.7-1.33 1.65-2.09.96-.76 2.26-.76 1.03 0 1.66.45l-.23 2.68q-.08.26-.21.37-.14.11-.37.11-.22 0-.65-.07-.43-.08-.83-.08-.6 0-1.06.18-.47.17-.84.5-.37.32-.65.79-.28.46-.53 1.06v9.16h-3.58V24.78h2.1q.55 0 .77.2.22.19.29.7Zm12.62 14.21q-1.95 0-2.98-1.09-1.04-1.1-1.04-3.03v-8.3h-1.52q-.29 0-.5-.19-.2-.19-.2-.57v-1.42l2.39-.39.76-4.06q.07-.29.27-.45.21-.16.53-.16h1.85v4.68h3.97v2.56h-3.97v8.06q0 .69.34 1.08.34.4.94.4.33 0 .56-.08.22-.08.39-.17l.3-.17q.13-.08.26-.08.16 0 .26.08t.21.24l1.08 1.74q-.79.66-1.8.99-1.02.33-2.1.33Zm5.71-7.49v-2.99h7.51v2.99h-7.51Zm23.63-11.74-.97 1.85q-.17.3-.37.44-.19.14-.48.14-.31 0-.66-.23-.36-.22-.85-.5-.49-.27-1.15-.5-.66-.22-1.56-.22-.81 0-1.42.19-.61.2-1.02.55-.42.34-.62.83-.2.49-.2 1.07 0 .73.41 1.23.41.49 1.09.84.69.35 1.56.62.87.28 1.78.59.91.31 1.78.72.87.42 1.55 1.05.69.63 1.1 1.54.41.92.41 2.22 0 1.42-.48 2.66-.49 1.24-1.42 2.16-.94.92-2.29 1.45-1.35.53-3.09.53-1 0-1.97-.19-.97-.2-1.86-.56-.89-.36-1.68-.87-.78-.51-1.39-1.13l1.15-1.87q.14-.21.37-.34.24-.14.5-.14.36 0 .78.3.42.29 1 .65.58.37 1.36.66.77.3 1.86.3 1.67 0 2.58-.79.91-.79.91-2.27 0-.82-.41-1.35-.41-.52-1.09-.87-.69-.36-1.56-.61-.87-.24-1.77-.53-.89-.29-1.76-.7-.87-.4-1.56-1.06-.68-.65-1.09-1.63-.41-.98-.41-2.41 0-1.15.45-2.23.46-1.09 1.33-1.93.87-.84 2.15-1.35 1.27-.51 2.92-.51 1.86 0 3.43.58 1.56.58 2.66 1.62Zm8.17 19.23q-1.94 0-2.98-1.09-1.04-1.1-1.04-3.03v-8.3h-1.52q-.29 0-.49-.19-.21-.19-.21-.57v-1.42l2.4-.39.75-4.06q.07-.29.28-.45.2-.16.52-.16h1.85v4.68h3.98v2.56h-3.98v8.06q0 .69.34 1.08.35.4.94.4.33 0 .56-.08.22-.08.39-.17.17-.09.3-.17.13-.08.26-.08.16 0 .26.08t.22.24l1.07 1.74q-.78.66-1.8.99-1.01.33-2.1.33Zm15.06-15.11h3.59v14.88h-2.19q-.71 0-.9-.65l-.25-1.19q-.91.93-2.01 1.5-1.11.57-2.6.57-1.22 0-2.15-.41-.94-.41-1.58-1.17-.63-.75-.96-1.79-.33-1.04-.33-2.28v-9.46h3.58v9.46q0 1.36.63 2.11.64.74 1.9.74.93 0 1.74-.41.81-.41 1.53-1.14V24.78Zm16.46 10.47v-6.67q-.61-.74-1.33-1.04-.71-.31-1.54-.31-.81 0-1.46.31-.66.3-1.12.92-.46.61-.71 1.56-.25.95-.25 2.24 0 1.31.21 2.22.21.9.6 1.48.4.57.96.82.57.26 1.26.26 1.12 0 1.9-.47.79-.46 1.48-1.32Zm0-17.14h3.58v21.55h-2.19q-.71 0-.9-.65l-.3-1.44q-.9 1.03-2.07 1.67-1.16.64-2.71.64-1.22 0-2.24-.51-1.01-.51-1.75-1.47-.73-.97-1.13-2.39-.39-1.42-.39-3.25 0-1.65.44-3.07.45-1.42 1.3-2.46.84-1.05 2.01-1.64 1.18-.58 2.64-.58 1.25 0 2.13.39.89.39 1.58 1.06v-7.85Zm7.24 6.67h3.59v14.88h-3.59V24.78Zm4.09-4.33q0 .46-.19.87-.19.4-.5.71-.31.3-.73.48-.43.19-.9.19-.47 0-.88-.19-.41-.18-.72-.48-.3-.31-.48-.71-.19-.41-.19-.87 0-.48.19-.9.18-.42.48-.73.31-.3.72-.48t.88-.18q.47 0 .9.18.42.18.73.48.31.31.5.73t.19.9Zm9.74 4.1q1.65 0 3.01.54 1.35.53 2.32 1.52.96.99 1.49 2.41.52 1.42.52 3.17 0 1.77-.52 3.19-.53 1.42-1.49 2.42-.97 1-2.32 1.54-1.36.54-3.01.54-1.67 0-3.03-.54-1.36-.54-2.33-1.54-.96-1-1.49-2.42t-.53-3.19q0-1.75.53-3.17t1.49-2.41q.97-.99 2.33-1.52 1.36-.54 3.03-.54Zm0 12.57q1.86 0 2.75-1.24.89-1.25.89-3.66t-.89-3.67q-.89-1.26-2.75-1.26-1.88 0-2.79 1.27-.91 1.27-.91 3.66t.91 3.65q.91 1.25 2.79 1.25Z"/></svg>