<svg width="48" height="48" viewBox="0 0 48 48" fill="none" xmlns="http://www.w3.org/2000/svg">
<g clip-path="url(#clip0_5_16)">
<path d="M31.2372 14.7946C33.5975 14.6806 33.9605 18.5148 31.3704 18.1788C29.2219 18.1188 28.9496 14.8546 31.2372 14.7946Z" fill="white"/>
<path d="M38.9715 23.927C39.1591 10.2043 33.6155 8.42818 20.9732 9.19021C12.2645 8.52419 8.8452 15.0645 8.82102 22.7989C8.34899 30.3713 10.7031 39.9417 20.2107 39.1377C32.0784 38.9277 39.5222 37.7336 38.9715 23.927ZM18.2196 0.309784C31.8121 -0.944278 47.547 0.98782 47.7346 17.8547C48.2127 25.619 48.4669 33.9415 44.63 40.9858C40.5449 47.8741 33.7366 47.5861 26.6559 47.7482C20.4285 47.9942 14.0075 48.5282 8.00403 46.5061C1.88556 44.406 0.221291 39.8278 0.354435 33.8394C0.142621 28.6852 -0.0691988 23.543 0.0215837 18.3827C0.324174 6.15405 5.71035 0.027772 18.2196 0.309784Z" fill="black"/>
<path d="M20.9732 9.19021C33.6155 8.42818 39.1529 10.2043 38.9714 23.927C39.5221 37.7336 32.0783 38.9217 20.2166 39.1377C10.7031 39.9418 8.35498 30.3653 8.82701 22.7989C8.84519 15.0645 12.2645 8.52418 20.9732 9.19021ZM36.3086 24.359C36.3086 15.8626 35.2556 11.3623 25.5242 11.7943C22.6313 12.0764 19.2483 11.6503 16.3434 12.6284C10.5094 15.4545 11.3143 23.2249 11.853 28.6132C12.3795 37.3196 19.6599 37.0616 26.4743 36.0896C34.844 35.6516 36.3873 32.0694 36.3086 24.359Z" fill="white"/>
<path d="M24.9313 18.7847C18.7705 18.4727 16.8703 28.5352 23.6302 28.8053C29.9847 28.6552 30.959 20.5788 24.9313 18.7847ZM23.6423 16.4746C34.2815 15.7606 33.6279 31.3494 23.5939 31.2414C14.0864 30.9533 14.976 17.3147 23.6423 16.4746Z" fill="white"/>
<path d="M23.6361 28.8053C16.8761 28.5293 18.7704 18.4668 24.9372 18.7848C30.9589 20.5789 29.9845 28.6553 23.6361 28.8053Z" fill="black"/>
<path d="M25.5242 11.7944C35.2556 11.3564 36.3147 15.8626 36.3086 24.359C36.3813 32.0694 34.8441 35.6516 26.4744 36.0896C19.66 37.0617 12.3795 37.3196 11.853 28.6133C11.3144 23.219 10.5155 15.4546 16.3435 12.6284C19.2484 11.6504 22.6315 12.0764 25.5242 11.7944ZM23.5998 31.2414C33.6277 31.3494 34.2873 15.7606 23.6482 16.4746C14.9758 17.3147 14.0862 30.9534 23.5998 31.2414ZM31.3703 18.1787C33.9606 18.5147 33.5974 14.6865 31.2372 14.7945C28.9496 14.8546 29.2219 18.1187 31.3703 18.1787Z" fill="black"/>
</g>
<defs>
<clipPath id="clip0_5_16">
<rect width="48" height="48" fill="white"/>
</clipPath>
</defs>
</svg>