<svg width="48" height="48" viewBox="0 0 48 48" fill="none" xmlns="http://www.w3.org/2000/svg">
<g clip-path="url(#clip0_27_2)">
<path fill-rule="evenodd" clip-rule="evenodd" d="M47.9077 5.72498C48.5984 2.03604 45.2909 -1.02954 42.0845 0.327644L2.77957 16.9637C-0.801225 18.4793 -0.960776 23.9646 2.52466 25.7268L11.0842 30.0547L15.156 45.6669C15.3675 46.4779 15.955 47.1058 16.7002 47.3174C17.4455 47.5288 18.2373 47.2927 18.7817 46.6961L25.054 39.8249L33.8403 47.0439C36.3908 49.1393 40.0642 47.613 40.7047 44.1918L47.9077 5.72498ZM4.34575 21.4044L43.6506 4.76836L36.4477 43.2354L26.1539 34.7777C25.2889 34.0669 24.0784 34.1612 23.3138 34.9988L20.6273 37.9418L21.4345 33.0786L37.2508 15.7521C38.0206 14.9089 38.1019 13.5718 37.4411 12.6242C36.7803 11.6765 35.5816 11.4107 34.6364 12.0023L12.7936 25.6756L4.34575 21.4044ZM15.4569 29.4915L16.7744 34.5435L17.2803 31.4955C17.3594 31.0192 17.5692 30.5805 17.8817 30.2382L22.7051 24.9544L15.4569 29.4915Z" fill="#0F0F0F"/>
</g>
<defs>
<clipPath id="clip0_27_2">
<rect width="48" height="48" fill="white"/>
</clipPath>
</defs>
</svg>