<svg width="48" height="34" viewBox="0 0 48 34" fill="none" xmlns="http://www.w3.org/2000/svg">
<g clip-path="url(#clip0_5_38)">
<path d="M42.1636 0.707495C42.1636 0.707495 36.3709 0 23.9302 0C11.8931 0 5.83418 0.707495 5.83418 0.707495C4.28666 0.708057 2.80272 1.30529 1.70866 2.36787C0.614602 3.43045 2.99874e-07 4.87138 4.08007e-07 6.37381V27.6283C-0.000286166 28.3724 0.150392 29.1093 0.443432 29.7969C0.736472 30.4845 1.16613 31.1093 1.70789 31.6356C2.24964 32.162 2.89288 32.5796 3.60087 32.8646C4.30886 33.1496 5.06774 33.2965 5.83418 33.2967C5.83418 33.2967 11.4676 34 23.9302 34C36.3862 34 42.1636 33.2967 42.1636 33.2967C42.9304 33.2973 43.6898 33.151 44.3983 32.8664C45.1068 32.5817 45.7505 32.1641 46.2926 31.6376C46.8347 31.1111 47.2646 30.486 47.5575 29.798C47.8505 29.1101 48.0009 28.3728 48 27.6283V6.36957C48 5.62566 47.849 4.88904 47.5556 4.20181C47.2623 3.51458 46.8323 2.89021 46.2903 2.36438C45.7483 1.83855 45.1049 1.42158 44.3968 1.13728C43.6887 0.852983 42.9299 0.706939 42.1636 0.707495ZM17.5876 25.419V8.5895L33.1527 16.9989L17.5876 25.419Z" fill="black"/>
</g>
<defs>
<clipPath id="clip0_5_38">
<rect width="48" height="34" fill="white"/>
</clipPath>
</defs>
</svg>