<svg width="48" height="35" viewBox="0 0 48 35" fill="none" xmlns="http://www.w3.org/2000/svg">
<g clip-path="url(#clip0_5_32)">
<path d="M47.0088 6.63237C46.7422 5.68349 46.2073 4.81698 45.4588 4.12138C44.7104 3.42578 43.7753 2.92601 42.7491 2.67315C36.5274 1.9959 30.2646 1.69071 24 1.75949C17.7355 1.69071 11.4728 1.9959 5.25096 2.67315C4.22477 2.92601 3.28969 3.42578 2.54129 4.12138C1.79285 4.81698 1.25795 5.68349 0.991175 6.63237C0.309639 10.1595 -0.0217243 13.7367 0.00122452 17.3194C-0.0228643 20.9206 0.308499 24.5162 0.991175 28.0618C1.27178 28.9954 1.81283 29.8445 2.56034 30.5248C3.30781 31.2051 4.23557 31.6923 5.25096 31.9379C11.4728 32.6151 17.7355 32.9205 24 32.8516C30.2646 32.9205 36.5274 32.6151 42.7491 31.9379C43.7645 31.6923 44.6924 31.2051 45.4396 30.5248C46.1872 29.8445 46.7284 28.9954 47.0088 28.0618C47.6916 24.5162 48.0228 20.9206 47.9988 17.3194C48.0219 13.7367 47.6904 10.1595 47.0088 6.63237ZM19.0802 23.9365V10.7577L31.6496 17.3194L19.0802 23.9088V23.9365Z" fill="black" stroke="black" stroke-width="2.66667"/>
</g>
<defs>
<clipPath id="clip0_5_32">
<rect width="48" height="35" fill="white"/>
</clipPath>
</defs>
</svg>